# xmcd
#
# Track frame offsets:
# 150
# 18024
# 32998
# 49998
# 66878
# 80405
# 95140
# 109685
# 125229
# 142581
#
# Disc length: 2106 seconds
#
#
# Revision: 0
# Processed by: cddbd v1.5.2PL0 Copyright (c) Steve Scherf et al.
# Submitted via: FreeRIP 2.931 
#
DISCID=8508380a
DTITLE=Jason Blaine  - Make My Move
DYEAR=0007
DGENRE=country
TTITLE0=Jason Blaine - Good Day to Get Gone
TTITLE1=Jason Blaine - Rock in my Boot
TTITLE2=Jason Blaine - Just a Memory
TTITLE3=Jason Blaine - If you Don't Love Me
TTITLE4=Jason Blaine - I Wanna be That Man
TTITLE5=Jason Blaine - My First Car
TTITLE6=Jason Blaine - Flirtin' with Me
TTITLE7=Jason Blaine - Give It To Me
TTITLE8=Jason Blaine - Make My Move
TTITLE9=Jason Blaine - The Man I am
EXTD=
EXTT0=
EXTT1=
EXTT2=
EXTT3=
EXTT4=
EXTT5=
EXTT6=
EXTT7=
EXTT8=
EXTT9=
PLAYORDER=
